<svg width="163" height="36" viewBox="0 0 163 36" fill="none" xmlns="http://www.w3.org/2000/svg">
<path d="M32.0741 25.3669H22.8959C22.8959 25.3669 22.2763 25.5236 21.6567 24.4857L6.3791 0.634723C6.3791 0.634723 6.04992 0.0864244 5.31412 0.0276781C4.57832 -0.0310682 4.09424 0.595559 3.97806 0.88929L0.240964 7.64511C0.240964 7.64511 -0.301205 8.31091 0.240964 9.32917L16.022 35.0601C16.022 35.0601 16.4092 35.9412 17.1644 35.9804C17.9196 36.0196 27.8722 35.9804 27.8722 35.9804C27.8722 35.9804 28.608 36.0392 29.1309 35.1188C29.6537 34.1984 33.3714 27.4426 33.3714 27.4426C33.3714 27.4426 34.0297 25.4061 32.0741 25.3669Z" fill="#3766E8"/>
<path d="M55.9876 25.3669H46.8094C46.8094 25.3669 46.1898 25.5236 45.5702 24.4857L30.312 0.634723C30.312 0.634723 29.9828 0.0864244 29.247 0.0276781C28.5112 -0.0310682 28.0271 0.595559 27.911 0.88929L24.1739 7.64511C24.1739 7.64511 23.6317 8.31091 24.1739 9.32917L39.9549 35.0601C39.9549 35.0601 40.3421 35.9412 41.0973 35.9804C41.8525 36.0196 51.8052 35.9804 51.8052 35.9804C51.8052 35.9804 52.541 36.0392 53.0638 35.1188C53.5866 34.1984 57.3043 27.4426 57.3043 27.4426C57.3043 27.4426 57.9433 25.4061 55.9876 25.3669Z" fill="#3766E8"/>
<path d="M51.1081 0.732634L47.4872 7.37097C47.4872 7.37097 46.7514 8.31091 47.2548 9.15294C47.7582 9.99497 56.3168 23.9178 56.3168 23.9178C56.3168 23.9178 56.7234 24.8382 57.6528 24.8186C58.5629 24.7795 58.7953 24.2507 59.1051 23.6437C59.4149 23.0562 62.8615 16.7312 62.8615 16.7312C62.8615 16.7312 63.3263 16.0067 62.7841 15.1842C62.2419 14.3422 53.5478 0.732634 53.5478 0.732634C53.5478 0.732634 53.1606 -0.0898141 52.1924 0.00809637C51.3985 0.106007 51.1081 0.732634 51.1081 0.732634Z" fill="#3766E8"/>
<path d="M114.523 18.1411C109.643 18.1411 105.693 22.1359 105.693 27.0706C105.693 32.0052 109.643 36 114.523 36C119.402 36 123.352 32.0052 123.352 27.0706C123.352 22.1359 119.383 18.1411 114.523 18.1411ZM114.523 34.688C110.359 34.688 106.99 31.2807 106.99 27.0706C106.99 22.8604 110.359 19.4531 114.523 19.4531C118.686 19.4531 122.055 22.8604 122.055 27.0706C122.055 31.2611 118.686 34.688 114.523 34.688Z" fill="#3766E8"/>
<path d="M75.5251 18.1411C70.6455 18.1411 66.6954 22.1359 66.6954 27.0706C66.6954 32.0052 70.6455 36 75.5251 36C80.4046 36 84.3547 32.0052 84.3547 27.0706C84.3353 22.1359 80.3852 18.1411 75.5251 18.1411ZM75.5251 34.688C71.362 34.688 67.9928 31.2807 67.9928 27.0706C67.9928 22.8604 71.362 19.4531 75.5251 19.4531C79.6881 19.4531 83.0573 22.8604 83.0573 27.0706C83.0573 31.2611 79.6881 34.688 75.5251 34.688Z" fill="#3766E8"/>
<path d="M95.4885 18.1411C92.371 18.1411 89.6408 19.786 88.0724 22.2534V13.0498C88.0724 12.6581 87.7626 12.3448 87.3753 12.3448C86.9881 12.3448 86.6783 12.6581 86.6783 13.0498V35.2755C86.6783 35.6671 86.9881 35.9804 87.3753 35.9804C87.7626 35.9804 88.0724 35.6671 88.0724 35.2755V31.8682C89.6408 34.3355 92.371 35.9804 95.4885 35.9804C100.368 35.9804 104.318 31.9857 104.318 27.051C104.299 22.1359 100.349 18.1411 95.4885 18.1411ZM95.4885 34.688C91.7514 34.688 88.6727 31.9465 88.0724 28.3434V25.7977C88.6727 22.1946 91.7708 19.4531 95.4885 19.4531C99.6516 19.4531 103.021 22.8604 103.021 27.0706C103.021 31.2611 99.6516 34.688 95.4885 34.688Z" fill="#3766E8"/>
<path d="M157.548 27.051C157.548 22.1163 153.597 18.1215 148.718 18.1215C143.838 18.1215 139.888 22.1163 139.888 27.051C139.888 31.9857 143.838 35.9804 148.718 35.9804C151.913 35.9804 154.701 34.2572 156.25 31.6723V35.3342C156.25 35.6867 156.541 35.9804 156.889 35.9804C157.238 35.9804 157.528 35.6867 157.528 35.3342V27.9126C157.528 27.8538 157.509 27.7951 157.489 27.7363C157.528 27.5209 157.548 27.286 157.548 27.051ZM148.718 34.688C144.555 34.688 141.186 31.2807 141.186 27.0706C141.186 22.8604 144.555 19.4531 148.718 19.4531C152.881 19.4531 156.25 22.8604 156.25 27.0706C156.25 31.2611 152.881 34.688 148.718 34.688Z" fill="#3766E8"/>
<path d="M131.814 18.2782H129.045V12.7952C129.045 12.4036 128.735 12.0903 128.348 12.0903C127.961 12.0903 127.651 12.4036 127.651 12.7952V18.2978H124.882C124.553 18.2978 124.282 18.5719 124.282 18.9048C124.282 19.2377 124.553 19.5119 124.882 19.5119H127.651V35.295C127.651 35.6867 127.961 36 128.348 36C128.735 36 129.045 35.6867 129.045 35.295V19.4923H131.814C132.143 19.4923 132.414 19.2181 132.414 18.8852C132.414 18.5523 132.143 18.2782 131.814 18.2782Z" fill="#3766E8"/>
<path d="M162.388 35.9804H161.072C161.052 35.9804 161.033 35.9608 161.033 35.9412V18.3761C161.033 18.3565 161.052 18.3369 161.072 18.3369H162.388C162.408 18.3369 162.427 18.3565 162.427 18.3761V35.9412C162.427 35.9608 162.408 35.9804 162.388 35.9804Z" fill="#3766E8"/>
<path d="M161.73 15.243C162.222 15.243 162.621 14.8397 162.621 14.3422C162.621 13.8447 162.222 13.4414 161.73 13.4414C161.238 13.4414 160.839 13.8447 160.839 14.3422C160.839 14.8397 161.238 15.243 161.73 15.243Z" fill="#3766E8"/>
<path d="M136.151 36C136.643 36 137.042 35.5967 137.042 35.0992C137.042 34.6017 136.643 34.1984 136.151 34.1984C135.659 34.1984 135.261 34.6017 135.261 35.0992C135.261 35.5967 135.659 36 136.151 36Z" fill="#3766E8"/>
</svg>
